<svg xmlns="http://www.w3.org/2000/svg" viewBox="0 0 89.83 68.7"><defs><style>.cls-1{fill:#fff;}</style></defs><title>about_us</title><g id="Layer_2" data-name="Layer 2"><g id="Layer_1-2" data-name="Layer 1"><g id="Layer_1-2-2" data-name="Layer 1-2"><path class="cls-1" d="M44.67,38.33a11.83,11.83,0,0,1-3.88-.65c-5.91-2.1-8.47-7.8-10.22-13.85a4.2,4.2,0,0,1-3-1.6c-1.57-1.94-1.61-5-1.17-7l0-.11,0-.11a2.56,2.56,0,0,1,2.22-1.65,8,8,0,0,0,0-1.65,9.9,9.9,0,0,1,.06-2.11,11.47,11.47,0,0,1,2.51-5.9C33.51,1.27,36.73,0,40.69,0c.56,0,1.14,0,1.72.08,6.86.6,17.25,4.67,17.6,13a4.36,4.36,0,0,1,2.33,2.16,7.55,7.55,0,0,1-.54,7.36,5.78,5.78,0,0,1-2.23,1.61,3.2,3.2,0,0,0-.83.47,12.36,12.36,0,0,0-.38,1.88,9.5,9.5,0,0,1-.51,2.27,17.36,17.36,0,0,1-2.06,3.68A14.27,14.27,0,0,1,44.67,38.33ZM32.41,18.62a2.48,2.48,0,0,1,2.42,1.88c1.75,6.65,3.81,12.65,9.64,13h.36c5.66,0,9-5.64,9.36-11.21a2.45,2.45,0,0,1,2-2.38,7,7,0,0,0,1.72-1.65,1.55,1.55,0,0,0-.28-.12h-.29a2.31,2.31,0,0,1-2.15-1.46,2.67,2.67,0,0,1,.1-2.23c-.61-7.37-10.71-9-12.77-9.29A16.69,16.69,0,0,0,40.44,5c-3.25,0-5.25,1.13-6.28,3.55-.87,2.09-.78,4.61-.68,7a2.54,2.54,0,0,1-1.75,2.44l.57.57Z"/><path class="cls-1" d="M76.28,41c-6,0-8.33-5.86-9.26-8.85A3.41,3.41,0,0,1,65.36,31c-1.44-1.68-1.17-4.25-1.06-5l0-.16.06-.15a2.52,2.52,0,0,1,1.24-1.38C66,19.11,69,16,73.85,16a12.32,12.32,0,0,1,2,.16c4.82.72,9.89,3.52,10.43,8a4.18,4.18,0,0,1,1.81,3.44,4.94,4.94,0,0,1-2.46,4.7c-1.16,5.13-4.52,8.4-8.94,8.59Zm-6-13.42a2.45,2.45,0,0,1,1,1.41l.13.47c.6,2.27,1.36,5.1,3.24,6.12a3.81,3.81,0,0,0,1.83.52c2.49,0,4.28-3.39,4.47-5.82v-.09l0-.09a2.71,2.71,0,0,1,1.22-1.86,2.61,2.61,0,0,1-.55-.78,2.58,2.58,0,0,1-.07-2c-.66-2.72-3.8-3.83-6.39-4.27A10.3,10.3,0,0,0,73.56,21a2.58,2.58,0,0,0-2.76,1.78,8.08,8.08,0,0,0-.24,3.39l0,.11v.11A2.4,2.4,0,0,1,70.28,27.55Z"/><path class="cls-1" d="M15.28,41C9.27,41,7,35.11,6,32.12A3.41,3.41,0,0,1,4.36,31c-1.44-1.68-1.17-4.25-1.06-5l0-.16.06-.15a2.52,2.52,0,0,1,1.24-1.38C5,19.11,8,16,12.85,16a12.32,12.32,0,0,1,2,.16c4.82.72,9.89,3.52,10.43,8a4.18,4.18,0,0,1,1.81,3.44,4.94,4.94,0,0,1-2.46,4.7c-1.16,5.13-4.52,8.4-8.94,8.59Zm-6-13.43a2.55,2.55,0,0,1,1,1.42l.13.46c.6,2.28,1.36,5.11,3.24,6.13a3.81,3.81,0,0,0,1.83.52c2.49,0,4.28-3.39,4.47-5.82v-.09l0-.09a2.71,2.71,0,0,1,1.22-1.86,2.61,2.61,0,0,1-.55-.78,2.58,2.58,0,0,1-.07-2c-.66-2.72-3.8-3.83-6.39-4.27A10.3,10.3,0,0,0,12.56,21,2.58,2.58,0,0,0,9.8,22.76a8.08,8.08,0,0,0-.24,3.39l0,.11v.11A2.32,2.32,0,0,1,9.28,27.54Z"/><path class="cls-1" d="M13.78,68.7A2.28,2.28,0,0,1,12,67.8,2.1,2.1,0,0,1,11.64,66C15.22,53.48,26.11,40,40,38.28a31.08,31.08,0,0,1,3.72-.23c16,0,28,12.77,35.2,23.48A2.36,2.36,0,0,1,79.06,64a2.58,2.58,0,0,1-2.25,1.3h0a2.44,2.44,0,0,1-2-1.07C65.06,50.16,54.56,43,43.55,43a23.77,23.77,0,0,0-2.52.13C28.8,44.34,23,54.52,17.44,64.36c-.61,1.08-1.22,2.15-1.83,3.2A2,2,0,0,1,13.78,68.7Z"/><path class="cls-1" d="M87.45,52.51a2.06,2.06,0,0,1-.42,0l-.15,0-.14-.06a10.79,10.79,0,0,1-4.12-3.34A10.54,10.54,0,0,0,80,46.6a9.2,9.2,0,0,0-4.56-1.22A14.14,14.14,0,0,0,67.89,48a2.09,2.09,0,0,1-1.18.36,2.26,2.26,0,0,1-2.06-1.43,2.23,2.23,0,0,1,.48-2.45,14.6,14.6,0,0,1,18.51-1.5,15.46,15.46,0,0,1,3,2.92,14.78,14.78,0,0,0,2.19,2.21,2.44,2.44,0,0,1,.83,2.74,2.38,2.38,0,0,1-2.26,1.7Z"/><path class="cls-1" d="M2.24,49.55a2.24,2.24,0,0,1-1.05-.26A2.27,2.27,0,0,1,.1,48a2.19,2.19,0,0,1,.16-1.7l0-.08,0-.06C2.79,42.52,8.36,40,13.9,40c4.74,0,8.52,1.87,10.38,5.12l.08.13,0,.14a2,2,0,0,1-.25,1.76,1.75,1.75,0,0,1-1.44.74h0a1.84,1.84,0,0,1-.57-.09,29,29,0,0,1-3.67-1.32,13.68,13.68,0,0,0-5.41-1.42h-.24c-3.19.08-5.46,1.56-8.08,3.29l-1.35.88-.11.06A2.23,2.23,0,0,1,2.24,49.55Z"/></g></g></g></svg>