<svg xmlns="http://www.w3.org/2000/svg" viewBox="0 0 76.46 79.28"><defs><style>.cls-1{fill:#fff;}</style></defs><title>back-icon</title><g id="Layer_2" data-name="Layer 2"><g id="Layer_1-2" data-name="Layer 1"><path class="cls-1" d="M73.49,52.08C66.8,70,50.89,76.18,32.91,76.82,16.83,77.4,6.33,63.69,3.46,49.33.09,32.48,9.92,16.13,23.58,7,42.16-5.35,68,14.12,72.44,33.3c.43,1.87,3.3,1.08,2.87-.79C71.13,14.28,49.33-3.86,30.36.72,11.55,5.26-.39,26.74,0,44.87c1,44.24,62.65,44.63,76.34,8C77,51.07,74.15,50.3,73.49,52.08Z"/><path class="cls-1" d="M41.32,21.93C35.48,27.41,29.61,32.59,22.63,36.6A3.45,3.45,0,0,0,21.94,42c5.81,5.93,12.43,10.55,16.12,18.23,1.9,3.95,7.77.5,5.88-3.44-3.31-6.87-8.77-11.53-14.11-16.6a123.1,123.1,0,0,0,16.3-13.4C49.34,23.73,44.51,18.92,41.32,21.93Z"/></g></g></svg>