<svg xmlns="http://www.w3.org/2000/svg" viewBox="0 0 28.1 22.03"><defs><style>.cls-1{fill:#fff;}</style></defs><title>email</title><g id="Layer_2" data-name="Layer 2"><g id="Layer_1-2" data-name="Layer 1"><path class="cls-1" d="M27.71,2.93C27.3,1,24.44-.55,19,.19L13.26.93c-2.73.35-5.46.7-8.19,1.08a17.57,17.57,0,0,0-2.19.5c-.37.11-.75.22-1.15.31l-.07,0-.08,0L1.41,3l0,0s0,0,0,0a.66.66,0,0,0-.15.22.09.09,0,0,0,0,.05,1,1,0,0,0-.05.18c0,.14-.1,1.26-.22,2.83C.66,9.84.21,15.63,0,17.82a3.55,3.55,0,0,0,.79,2.69A5.3,5.3,0,0,0,5.06,22c2.6,0,5.24-.08,7.79-.15l2-.06c.81,0,1.61-.07,2.42-.12,1.06-.06,2.15-.12,3.21-.12,6.76,0,7.45-3.85,7.52-4.62C28.23,14.06,28.13,4.76,27.71,2.93ZM5.28,3.49c2.72-.38,5.44-.73,8.17-1.08l5.73-.74A11.9,11.9,0,0,1,24.62,2l-.48.63-.3.38c-1.24,1.67-6.45,8-6.63,8.23-2.24,2.24-3.41,1.37-5.34-.07C10.42,10,5.65,6,3.4,3.93A14.2,14.2,0,0,1,5.28,3.49ZM1.53,18.58a1.74,1.74,0,0,1,0-.57c.19-2.25.64-8,.91-11.56,0-.47.07-.91.1-1.28,1.61,1.45,4.3,3.77,6.3,5.44A45.6,45.6,0,0,1,1.53,18.58Zm15.6,1.63c-.79.05-1.58.09-2.38.11l-2,.06c-2.54.08-5.16.15-7.74.15a4.66,4.66,0,0,1-2.71-.67A46.28,46.28,0,0,0,10,11.55c.4.33.75.6,1,.79a6.63,6.63,0,0,0,3.76,1.73,5.11,5.11,0,0,0,3.57-1.83l.46-.56a43.08,43.08,0,0,1,4.19,5.77l1.29,2a9.58,9.58,0,0,1-3.81.65C19.33,20.08,18.21,20.14,17.13,20.21Zm9.32-3.39a2.9,2.9,0,0,1-.95,1.8q-.66-1-1.29-2a43.46,43.46,0,0,0-4.49-6.14C21.43,8.41,24.18,5,25,3.87l.28-.36c.2-.26.41-.52.6-.79a1.19,1.19,0,0,1,.33.53A92.47,92.47,0,0,1,26.45,16.82Z"/></g></g></svg>