<svg xmlns="http://www.w3.org/2000/svg" viewBox="0 0 46.77 74.6"><defs><style>.cls-1{fill:#fff;}</style></defs><title>Asset 2</title><g id="Layer_2" data-name="Layer 2"><g id="Layer_1-2" data-name="Layer 1"><path class="cls-1" d="M34.2,58.2l-.1-.1c0-.1,0-.1-.1-.2a.35.35,0,0,0-.2-.1h-.1c-.1-.1-.2-.1-.3-.2-.1-.3-.4-.4-.5-.5h-.1c0-.1-.1-.2-.4-.2h-.1a.1.1,0,0,0-.1.1s-.2,0-.2.1h-.9l-.6.3a1.42,1.42,0,0,1-.6.2h-.1c-.1,0-.2,0-.2.1a.31.31,0,0,0-.2.1.37.37,0,0,0-.1.3h-.1c-.1,0-.2,0-.2.1s-.2.2-.3.2-.1.1-.2.1-.1.1-.1.2,0,.3.1.4a.37.37,0,0,0,.1.3v.5a6.5,6.5,0,0,0,.2,2.1v-.1h0a.37.37,0,0,0,.1.3.35.35,0,0,0,.1.2,1.33,1.33,0,0,0,.3.5.91.91,0,0,0,.5.3H30l.1.1a1.09,1.09,0,0,0,.5.1c.3,0,.5-.1.7-.1a2.48,2.48,0,0,1,.9-.1c.1,0,.2,0,.2-.1a.35.35,0,0,1,.2-.1l.1-.1a.1.1,0,0,0,.1-.1h.1c.1,0,.1,0,.2-.1l.2-.2v-.1h0a.4.4,0,0,0,.4-.2v-.5a.31.31,0,0,0,.1-.2.1.1,0,0,1,.1-.1.37.37,0,0,0,.1-.3,2,2,0,0,0,.1-.8v-.9h.1c.1-.1.2-.2.1-.4a.1.1,0,0,0-.1-.1C34.2,58.7,34.3,58.4,34.2,58.2Z"/><path class="cls-1" d="M25.1,59.4V57.7c.1-.1.1-.4.1-.4v-.2a.42.42,0,0,0-.2-.5h-.1a.85.85,0,0,0-.6-.2.76.76,0,0,0-.4-.2h-.1c0-.1-.1-.1-.2-.2a1.17,1.17,0,0,0-1,0,2,2,0,0,1-.7.1.37.37,0,0,0-.3.1h-.1c-.1,0-.1,0-.2.1s-.1.1-.2.1h-.2c-.2,0-.2.1-.3.1h-.1a.35.35,0,0,0-.4.4V57c-.2.1-.2.2-.3.3a.1.1,0,0,1-.1.1c-.1,0-.1.1-.1.2v.8a.1.1,0,0,0-.1.1v.2h0l-.1.1v.4c0,.1,0,.2.1.2a.31.31,0,0,1-.1.2,2,2,0,0,0,.1.7v.1c-.1.1,0,.2,0,.3v.2c0,.1.1.2,0,.4s0,.2.1.2.1.1.2.2l.1.1.1.1.1.1c.1.1.2.1.4.2h.1c0,.1.1.1.2.2a2.35,2.35,0,0,0,.8.2,1.27,1.27,0,0,0,.6-.1c.4-.1.7-.1,1-.2a1.38,1.38,0,0,0,.4-.3.55.55,0,0,1,.5-.2c.1,0,.2,0,.2-.1s.1-.1,0-.2c.1,0,.1,0,.2-.1s.1-.2.2-.2a.1.1,0,0,1,.1-.1.31.31,0,0,0,.1-.2,1.18,1.18,0,0,1,.1-.8,1.09,1.09,0,0,0,.1-.5c.1,0,.1,0,0-.2Z"/><path class="cls-1" d="M16.7,58.2a.22.22,0,0,0-.2-.2c-.1,0-.2-.2-.2-.3s-.2-.3-.3-.4l-.1-.1c0-.1-.1-.1-.1-.2s0-.2-.1-.2-.1-.1-.2-.1-.1,0-.1-.1l-.1-.1a1.38,1.38,0,0,0-.4-.3.1.1,0,0,1-.1-.1l-.1-.1h-.1c-.1-.1-.3-.1-.4-.2h-.1c-.2,0-.4.1-.6.1h-.2a.52.52,0,0,0-.4.2h-.1c-.2,0-.3.1-.5.2a.22.22,0,0,0-.2.2h-.3c-.1,0-.1.1-.2.2h-.2a.22.22,0,0,0-.2.2c0,.1-.2.3-.2.4l-.1.1a.52.52,0,0,0-.2.4l-.1.1a1.7,1.7,0,0,0,0,1v.2a.37.37,0,0,0,.1.3c.1.1.1.1.2.1h0a.1.1,0,0,0,.1.1h0a.31.31,0,0,0,.1.2l.1.1c0,.1,0,.1.1.2l.2.2c.1.2.3.5.5.5h0l.2.2.1.1.1.1c.1.1.2.2.3.2l.1.1c.2,0,.3.1.5.1h.5a2.15,2.15,0,0,1,.8,0c.1,0,.1,0,.2-.1h.1a2.19,2.19,0,0,0,.5-.3l.1-.1a.85.85,0,0,0,.6-.3c.1-.1.1-.1.2-.1a.22.22,0,0,0,.2-.2c0-.2.1-.3.1-.5a3,3,0,0,0,.2-1,.37.37,0,0,0-.1-.3v-.5Z"/><path class="cls-1" d="M24.8,47.9l-.1-.1-.1-.2a1.38,1.38,0,0,1-.3-.4c0-.1-.1-.1-.1-.2H24c-.1,0-.1,0-.2-.1l-.1-.1a.37.37,0,0,0-.3-.1c-.1,0-.1-.1-.2-.1s-.3-.3-.7-.3h-.7l-.1-.1c-.1,0-.3,0-.3.1H21c-.1,0-.1.1-.2.1a.35.35,0,0,0-.2.1c-.1,0-.2.1-.3.1s-.1,0-.2.1-.2.1-.4.1h-.2c-.1,0-.1,0-.2.1s-.1.2-.2.3-.2.3-.3.3a.22.22,0,0,0-.2.2,3.55,3.55,0,0,0-.2,1c0,.2,0,.3-.1.4a.37.37,0,0,0,.1.3v.1c0,.1,0,.1.1.2l.1.1.1.2a.35.35,0,0,1,.1.2c0,.1,0,.1.1.3a.1.1,0,0,0,.1.1h0v.3c0,.1.1.1.1.2l.1.1c.1.1.2.1.3.2a.1.1,0,0,0,.1.1,1.88,1.88,0,0,0,.9.4.84.84,0,0,0,.7.2c.2,0,.3,0,.4-.1h.5a.75.75,0,0,0,.5-.1c.1,0,.1-.1.2-.2H23c.1,0,.1-.1.2-.1h.1a1.16,1.16,0,0,0,.8-.6h0c.1-.1.3-.2.3-.4l.1-.1a1.27,1.27,0,0,0,.1-.6v-.1l.1-.1a2.82,2.82,0,0,0,0-1.3C25.1,48.1,24.9,48,24.8,47.9Z"/><path class="cls-1" d="M10.7,50.9c.2,0,.4.1.6.1a3.08,3.08,0,0,0,.9.1h.2a1.42,1.42,0,0,0,.6.2h0c.1,0,.1,0,.2-.1s.2-.1.4-.1h.1c.1,0,.1-.1.2-.1h.2c.1,0,.3-.1.4-.1s.1-.1.2-.1h.1c.1,0,.1,0,.2-.1a.1.1,0,0,0,.1-.1v-.1a1.76,1.76,0,0,0,.4-.5c0-.1.1-.1.1-.2s.1-.1.1-.2a2,2,0,0,0,0-1.1,1.22,1.22,0,0,0-.2-.9.35.35,0,0,0-.1-.2c-.3-.3-.3-.3-.4-.3s-.1-.1-.2-.1-.2-.1-.4-.2a.35.35,0,0,0-.4-.4h-.1c-.1-.1-.2-.1-.4-.1a1.34,1.34,0,0,0-.5.1c-.2.1-.4.1-.5.2h-.2c-.1,0-.2,0-.2.1h-.4a4.33,4.33,0,0,0-1.2.5c-.1,0-.2,0-.2.1a.37.37,0,0,0-.1.3c-.1,0-.1.1-.2.1a.37.37,0,0,0-.1.3v.1a.22.22,0,0,0-.2.2,2.58,2.58,0,0,0,.4,1.9.76.76,0,0,0,.2.5l.1.1C10.5,50.8,10.6,50.9,10.7,50.9Z"/><path class="cls-1" d="M35,46.6v-.2h0a.1.1,0,0,0-.1-.1c-.1-.2-.2-.2-.3-.2l-.1-.1-.2-.2c-.1,0-.1-.1-.2-.2a1.27,1.27,0,0,0-.6-.4h-.6a.44.44,0,0,0-.3-.1h0c-.1,0-.1,0-.2.1s-.5.1-.7.2l-1.2.3c-.1,0-.1,0-.2.1s-.1.3-.2.3l-.3.3-.1.1c-.1.1-.3.2-.4.4l-.1.1v.5a.35.35,0,0,0-.1.2h0v.8a.31.31,0,0,1-.1.2,1.48,1.48,0,0,0,.1.7v.5c0,.1.1.1.2.2h0v.1a.37.37,0,0,0,.1.3l.1.1a.1.1,0,0,0,.1.1.37.37,0,0,0,.3.1c0,.1.1.1.2.2h.1c.1.1.2.1.4.2l.1.1h.4a.75.75,0,0,0,.5-.1,2.15,2.15,0,0,1,.8,0h.2l.1-.1h.1c.1-.1.2-.2.3-.2h.2c.1,0,.1-.1.2-.2h.1a.37.37,0,0,0,.3-.1c.1,0,.1-.1.2-.2a.37.37,0,0,0,.3-.1c0-.1.1-.1.1-.2s.1-.1.1-.2v-.2c0-.1,0-.1.1-.2v-.1c0-.1.1-.2.1-.3V49a1.49,1.49,0,0,0,.1-.6v-.3c0-.1.1-.1.1-.2v-.8c0-.1.1-.2.1-.3A.35.35,0,0,1,35,46.6Z"/><path class="cls-1" d="M35,38.3a.54.54,0,0,0-.3-.4h0c0-.1-.1-.2-.3-.2l-.1-.1-.1-.1-.1-.1-.2-.2h-.3a.35.35,0,0,0-.2-.1h-.2l-.1-.1a2.79,2.79,0,0,0-1-.1l-.4.1h-.4a.31.31,0,0,0-.2.1h-.3a2,2,0,0,0-1.1.3h-.2c-.1.1-.2.1-.3.3s-.1.1-.1.2H29a.22.22,0,0,0-.2.2c0,.1-.1.1-.1.2a.1.1,0,0,0-.1.1c-.1.1,0,.3,0,.4v.1a.35.35,0,0,0-.1.2c-.1,0-.1.1-.1.2a.37.37,0,0,0,.1.3v.1a.1.1,0,0,1-.1.1c0,.1-.1.1-.1.2s0,.4,0,.5v.6a.1.1,0,0,0,.1.1c0,.1.1.2.2.3a.35.35,0,0,0,.2.1.1.1,0,0,0,.1.1H29c0,.1,0,.1.1.2s.1.1.2.1v.1c0,.1.1.1.2.1a3.09,3.09,0,0,0,.8.2,1.27,1.27,0,0,0,.6-.1,1.08,1.08,0,0,0,.6.1c.1,0,.1,0,.2-.1s.3-.1.4-.2.3-.1.4-.1a.1.1,0,0,0,.1-.1c.2,0,.3,0,.4-.1s.2-.1.4,0,.2,0,.2-.1a.31.31,0,0,0,.1-.2v-.1c.1,0,.3-.1.3-.2l.1-.1c.1,0,.1-.1.1-.2a.6.6,0,0,1,.1-.4.75.75,0,0,0,.1-.5,1,1,0,0,0,.2-.7.6.6,0,0,1,.1-.4c.1-.1.1-.1.1-.2s-.1-.1-.1-.2C35.1,38.4,35.1,38.3,35,38.3Z"/><path class="cls-1" d="M25.1,37.6a.54.54,0,0,0-.4-.3h-.1c-.1-.1-.3-.2-.4-.3l-.1-.1H24c-.1,0-.2-.1-.4-.1-.3-.3-.6-.3-1.1-.3-.1,0-.4.1-.8.2a.9.9,0,0,1-.5.1H21a.37.37,0,0,0-.3.1c-.1,0-.1.1-.2.1h-.1a.37.37,0,0,0-.3.1.1.1,0,0,0-.1.1l-.1.1c-.2.2-.5.4-.5.7h0a.52.52,0,0,0-.2.4v.3h0l-.1.1a.66.66,0,0,0,.2.7v.2l.1.1v.1a.1.1,0,0,0,.1.1l.3.6.2.2c.1.1.1.1.2.1s0,.2.1.2a.35.35,0,0,0,.2.1h0a.22.22,0,0,0,.2.2l.1.1c.1.1.3.1.6.1h.2l.1.1a2.77,2.77,0,0,0,.9.1h.7c.1,0,.1,0,.2-.1a4.49,4.49,0,0,1,1.2-.6l.2-.1c.1,0,.1-.1.2-.2a1.45,1.45,0,0,1,.2-.7l.3-.9c.2-.1.2-.4.2-.5v-.1a.35.35,0,0,0,.1-.2v-.5c0-.1,0-.2-.1-.2A5.64,5.64,0,0,0,25.1,37.6Z"/><path class="cls-1" d="M10,40.5c.1,0,.1.1.2.1s.2.1.3.2a.37.37,0,0,0,.3.1,1.27,1.27,0,0,1,.6.1.88.88,0,0,0,.7.1,1.34,1.34,0,0,0,.9.2,2,2,0,0,0,.8-.1c.2-.1.3,0,.6-.1.1,0,.1-.1.2-.2h0a.37.37,0,0,1,.3-.1H15c.2-.1.3-.1.5-.2s.3-.2.2-.3a.1.1,0,0,0,.1-.1.37.37,0,0,0,.1-.3v-.1h0v-.1c.1-.2.3-.4.3-.6V39a.35.35,0,0,0,.1-.2v-.6c0-.1.1-.2.1-.3s0-.1-.1-.2v-.4a.22.22,0,0,0-.2-.2.35.35,0,0,1-.2-.1c-.2-.1-.4-.3-.7-.2-.1,0-.1-.1-.2-.1a.22.22,0,0,0-.2-.2c-.2-.1-.4,0-.5,0h0l-.2-.2-.1-.1-.1-.1a.1.1,0,0,0-.1-.1.35.35,0,0,0-.2-.1h-.1a1,1,0,0,1-.9.1h-.4a.37.37,0,0,0-.3.1.31.31,0,0,0-.2.1c-.1,0-.1,0-.1.1s-.2.1-.4.1H11a.76.76,0,0,0-.5.2c-.2.1-.3.2-.5.2s-.1.1-.2.1H9.7c-.1,0-.1,0-.2.1a.1.1,0,0,0-.1.1c-.1,0-.1,0-.2.1s-.1.2-.2.3v.1c0,.1-.1.1-.2.1l-.1.1c-.1,0-.1.1-.1.2v.1h0a.35.35,0,0,0-.1.2v.5h0c0,.1-.1.2,0,.2s0,.1.1.1v.1a.6.6,0,0,0,.1.4l.1.1.1.1a.79.79,0,0,0,.6.5c.2,0,.2.1.5.2Z"/><path class="cls-1" d="M38.3,20.9a2.48,2.48,0,0,1-.1-.9,2.74,2.74,0,0,0-.2-1.3.45.45,0,0,0,0-.5V18c0-.1.1-.2,0-.3v-.5a.37.37,0,0,0-.1-.3v-.7c0-.3-.1-.6-.1-1a3.42,3.42,0,0,0-.1-1.1c0-.1-.1-.1-.1-.2a.9.9,0,0,0-.1-.5.75.75,0,0,0-.1-.5c0-.1-.1-.1-.1-.2s0-.2,0-.3v-.5c0-.1,0-.1-.1-.1v-.2a.1.1,0,0,0-.1-.1v-.2A.37.37,0,0,0,37,11c0-.1-.1-.2-.1-.3v-.1c0-.1,0-.2-.1-.2a.52.52,0,0,0-.4-.2c0-.1-.1-.1-.1-.2-.2-.1-.5-.3-.7-.4s-.3-.2-.4-.2-.3-.2-.4-.2l-.1-.1h-1q0-.15-.3-.3a.49.49,0,0,0-.3-.1H33c0-.1-.1-.1-.1-.2a.19.19,0,0,0-.3,0h0L32,8.2a.75.75,0,0,0-.5-.1h-.9a.19.19,0,0,0-.3,0,.1.1,0,0,0-.1.1H30c-.1,0-.1,0-.2.1h-.1a.35.35,0,0,0-.2-.1h-.3c-1-.1-2.1-.1-3.2-.1H23a14.84,14.84,0,0,0-2.3.1h-.3a.37.37,0,0,0-.3.1h-.7a2.79,2.79,0,0,0-1,.1h-.1a.31.31,0,0,0-.2.1h-.2c-.1.1-.3.1-.4.2a.76.76,0,0,1-.4.2h-.8q-.9.15-1.5.3c-.4.1-.7.2-.8.2h-.2a.1.1,0,0,0-.1.1h-.1a.1.1,0,0,0-.1.1H13a.1.1,0,0,0-.1.1h-.1c-.1,0-.1.1-.2.2V10h-.2c-.1,0-.1-.1-.2-.1a.32.32,0,0,0-.3.3c-.1,0-.1,0-.1.1h-.2a1.07,1.07,0,0,0-.6.2h-.2l-.1.1v.1a1.7,1.7,0,0,0-.6.6l-.1.1c-.1.1-.2.2-.2.3l-.1.1a.37.37,0,0,0,.1.3l-.2.4v.6h0l-.2.2v.2a.22.22,0,0,0-.2.2.37.37,0,0,0-.1.3h0v.4l-.1.1a.76.76,0,0,0-.1.4c0,.1,0,.2-.1.2a.1.1,0,0,1-.1.1c0,.1-.1.2-.1.3v1c0,.2,0,.3.1.4V17a.19.19,0,0,0,0,.3,4,4,0,0,0,0,1.1v1.2h0v.3c0,.1-.1.2-.1.3s0,.1.1.2h0v.1a3.42,3.42,0,0,0,.1,1.1v.3a.9.9,0,0,0,.1.5.76.76,0,0,0,.2.5c.1.3.2.5.1.7v.2l.1.1a.35.35,0,0,0,.1.2v.2a.1.1,0,0,0,.1.1c0,.1.1.2.2.3s.1.2.1.3v.4c0,.1.1.2.1.3h0a.6.6,0,0,0,.1.4v.2a1.34,1.34,0,0,1,.1.5c0,.1.1.2.1.3s-.1.2,0,.2.2.2.3.2v.3l.2.2h0a.52.52,0,0,0,.2.4l.2.2h0v.1c0,.1,0,.1.1.2l.1.1a.78.78,0,0,0,.4.4l.2.2a.37.37,0,0,0,.1.3.31.31,0,0,0,.2.1c0,.1,0,.1.1.2s.2.1.2.2h.1l.1.1c.3.3.5.5.7.5l.1.1a.75.75,0,0,0,.5.1c.1,0,.2,0,.2.1h.2a1.27,1.27,0,0,0,.6.1h.2a.35.35,0,0,0,.2.1h.4c.1,0,.1,0,.2-.1h0l.1.1h.2a.37.37,0,0,0,.3.1H17a5.64,5.64,0,0,1,.7.1h.6a7.77,7.77,0,0,0,1.6.2h.3c.1,0,.2,0,.2-.1h.3c.1,0,.2.1.3.1h.1c.1,0,.3-.1.4-.1s.1-.1.2-.1H22c.1,0,.1,0,.2-.1a.35.35,0,0,0,.2.1h0c.1,0,.1,0,.2-.1h1.1c.1,0,.2.1.2,0a.1.1,0,0,0,.1-.1.35.35,0,0,0,.2.1h.4a.44.44,0,0,0,.5-.1h.1c.1,0,.2.1.3.1s.2.1.2.1h.1a1.72,1.72,0,0,0,.8-.1h.6c.4,0,.7,0,.9-.2h.5a.37.37,0,0,0,.3.1h.5a1.1,1.1,0,0,0,.8,0h.5c.1,0,.2.1.3.1a.35.35,0,0,0,.2-.1h1.5a.35.35,0,0,0,.2-.1h.3a.1.1,0,0,0,.1-.1h.6c.4-.1.5-.1.7-.3s.1-.1.2-.1.1-.1.2-.1a1.38,1.38,0,0,0,.4-.3,4.88,4.88,0,0,1,.7-.3c.1,0,.1-.1.2-.1s0-.1,0-.2a.35.35,0,0,0,.1-.2.1.1,0,0,0,.1-.1.35.35,0,0,0,.1-.2.1.1,0,0,0,.1-.1c.1-.1.1-.2.2-.3h0a.7.7,0,0,0,.5-.4.37.37,0,0,0,.1-.3c.1,0,.2-.1.3-.2v-.2a1.27,1.27,0,0,0,.1-.6v-.4a.1.1,0,0,1,.1-.1l.1-.1v-.3h0a.35.35,0,0,0,.1-.2v-.3c0-.1,0-.3-.1-.3h0c0-.3-.1-.6-.1-.8.1,0,.1-.1.1-.2a.37.37,0,0,0-.1-.3v-1a.45.45,0,0,0,0-.5v-.3a4.4,4.4,0,0,0,.1-.9v-.5C38.3,21.2,38.4,21,38.3,20.9ZM20.1,27.8h-.2a4.25,4.25,0,0,1-1.1-.2c-.2,0-.3-.1-.5-.1l-.4-.1h-.1a.75.75,0,0,0-.5-.1c-.1,0-.3,0-.3-.1h-.1l-.1-.1a1.38,1.38,0,0,1-.3-.4.32.32,0,0,0-.3-.3c0-.1,0-.1-.1-.2a.37.37,0,0,0-.1-.3h0q0-.15-.3-.3h0a.35.35,0,0,0-.1-.2h0a.71.71,0,0,0-.3-.6,3.55,3.55,0,0,0-.2-1,.1.1,0,0,0-.1-.1.31.31,0,0,0-.1-.2.76.76,0,0,0-.2-.4l-.1-.1a.31.31,0,0,0-.1-.2c0-.1-.1-.1-.1-.2a1.85,1.85,0,0,1-.2-.7v-.1a.35.35,0,0,1-.1-.2c-.1-.1-.1-.3-.2-.4a.64.64,0,0,0,0-.6v-.1a.44.44,0,0,0,.1-.3.9.9,0,0,0-.1-.5c0-.1-.1-.3-.1-.4v-.8c0-.1,0-.1-.1-.2V18c0-.2.1-.4.1-.6v-.5c0-.1,0-.1-.1-.2v-.2a.1.1,0,0,0,.1-.1v-.3c0-.1.1-.1.1-.2a.19.19,0,0,0,0-.3c-.1-.1,0-.2.1-.4s0-.1.1-.2v-.3a.35.35,0,0,0,.1-.2c0-.1.1-.1.1-.2s.1-.1.2-.1a.6.6,0,0,0,.1-.4c0-.1,0-.1.1-.2l.2-.2.1-.1.1-.1a.1.1,0,0,0,.1-.1c.1,0,.2-.1.3-.1l.1-.1h.2a.1.1,0,0,0,.1-.1H16a.31.31,0,0,0,.2-.1c.1,0,.2-.1.4-.1a14,14,0,0,1,2.3-.2h.4c.3,0,.8-.1,1.3-.1h1.9c.2,0,.4-.1.6-.1a1.27,1.27,0,0,1,.6-.1,13.33,13.33,0,0,1,2,0,13.33,13.33,0,0,0,2,0h3c.1,0,.1-.1.3,0a.31.31,0,0,0,.2.1.31.31,0,0,1,.2.1c.1,0,.1.1.2.1v.2a.22.22,0,0,0,.2.2v.6a.1.1,0,0,0,.1.1h0V14c0,.1,0,.2.1.2v.3c.1.5.1,1,.2,1.4h0v.4h0c0,.1-.1.1-.1.2a.9.9,0,0,0,.1.5,2.13,2.13,0,0,0,0,.8c0,.1.1.3.1.4h0a.1.1,0,0,1-.1.1v.2c0,.1-.1.2-.1.3v1.8c0,.1.1.2.1.1v1.7a.6.6,0,0,1-.1.4c0,.2-.1.3-.1.5a.37.37,0,0,0,.1.3v.1a2,2,0,0,0-.1.8v.6a3.54,3.54,0,0,0-.1.6V26c0,.3,0,.3-.2.4a.22.22,0,0,0-.2.2l-.1.1c0,.1-.1.1-.1.2h0a.37.37,0,0,0-.3.1c-.1,0-.1.1-.2.1h-.1c-.1,0-.1.1-.2.1H29.3c-.1,0-.2-.1-.3-.1s-.1,0-.1.1h-.7a6.15,6.15,0,0,0-1.4.1.37.37,0,0,0-.3.1c-.2,0-.5-.1-.7-.1h-.5a.37.37,0,0,0-.3-.1h-.1a.1.1,0,0,0-.1.1,1.39,1.39,0,0,0-1.1,0,.31.31,0,0,0-.2-.1h-.3a.6.6,0,0,0-.4-.1h-.2a.37.37,0,0,0-.3.1.35.35,0,0,0-.2-.1h-1a.22.22,0,0,0-.2.2h0a.1.1,0,0,0-.1-.1c0-.1-.1-.1-.2-.1h-.4C20.7,27.8,20.4,27.8,20.1,27.8Zm1,4.1Z"/><path class="cls-1" d="M46.7,33.3v-.1a.37.37,0,0,0-.1-.3.35.35,0,0,0,.1-.2c0-.1,0-.1-.1-.2v-.1a3.75,3.75,0,0,0-.1-1.1c0-.4-.1-.8-.1-1.2,0-.1.1-.2.1-.4a9,9,0,0,1-.1-2.4,10.74,10.74,0,0,0,0-1.8v-.2a4.87,4.87,0,0,0-.1-1.2.1.1,0,0,0-.1-.1v-.3c0-.1,0-.2-.1-.2s.1-.1.1-.3V23a2,2,0,0,0-.1-.8,1.49,1.49,0,0,0,.1-.6V19.7c0-.2,0-.3-.1-.4a.14.14,0,0,0,0-.2.31.31,0,0,0-.1-.2v-.4a13.55,13.55,0,0,0-.2-2V16c0-.1,0-.2-.1-.2s0-.1-.1-.2v-.1a.76.76,0,0,0-.1-.4V15c.1,0,.1-.1.1-.2V13.5c0-.1,0-.1-.1-.2s-.1-.1-.1-.2V13c0-.1.1-.1.1-.2s0-.2-.1-.2v-.3a.31.31,0,0,0-.1-.2v-.8c0-.1,0-.1-.1-.2V11h0v-.3a4.65,4.65,0,0,0-.3-.9V9.6c0-.1,0-.2-.1-.2V9c-.1-.3-.1-.6-.2-1,0-.1-.1-.2-.2-.3a.32.32,0,0,0-.3-.3h0V7.3A.37.37,0,0,0,44,7c-.1-.1-.1-.1-.2-.1h0V6.8a.35.35,0,0,0-.1-.2.22.22,0,0,1-.2-.2.31.31,0,0,0-.1-.2c0-.1-.1-.2-.1-.3a.1.1,0,0,0-.1-.1V5.7a.37.37,0,0,0-.1-.3c-.1-.1-.2-.2-.3-.2h-.1a.52.52,0,0,0-.2-.4l-.1-.1-.2-.2L42,4.3V4.2c0-.1,0-.2-.1-.2a.35.35,0,0,0-.2-.1h0V3.8c0-.1-.1-.2-.2-.3h-.1a.1.1,0,0,1-.1-.1c-.1,0-.2-.1-.3-.1h-.2l-.1-.1c-.1-.1-.1-.2-.2-.2a.6.6,0,0,0-.4-.1H40a.1.1,0,0,1-.1-.1.35.35,0,0,0-.2-.1c-.1,0-.2-.1-.3-.1s-.2,0-.2-.1L39,2.3a.9.9,0,0,0-.5-.1h-.1L38.2,2c-.1,0-.1,0-.2-.1a.35.35,0,0,1-.2-.1.37.37,0,0,0-.3-.1.56.56,0,0,1-.6-.1c-.1,0-.1-.1-.2-.1h-.3c0-.1,0-.1-.1-.2.1-.2,0-.2-.1-.2h0L36.1,1a.75.75,0,0,0-.5.1h-.1C35.4.9,35.2.9,35,1h-.1a.1.1,0,0,0-.1-.1.19.19,0,0,0-.3,0,.76.76,0,0,1-.4-.1c-.1,0-.3-.1-.4-.1h-.8c-.1,0-.1-.1-.3-.1h0c-.1,0-.2,0-.2.1h-1c-.2,0-.4.1-.6.1a.85.85,0,0,0-.7,0,1.45,1.45,0,0,0-.7-.2H28.2c0-.1-.1-.1-.2-.1a3.54,3.54,0,0,0-.6.1h-.2a.37.37,0,0,1-.3-.1h0l-.2.1V.4h0c-.1,0-.2.1-.3.1h-.2a1.27,1.27,0,0,0-.6.1.37.37,0,0,0-.3-.1h-.8c-.1-.1-.3,0-.4,0A.1.1,0,0,1,24,.4L23.9.3h-.7a.37.37,0,0,1-.3-.1H20.6c-.1,0-.1,0-.1.1a1.48,1.48,0,0,0-.7.1h0c-.1-.3-.4-.3-.6-.3h-.1L19,0h-.2a4.89,4.89,0,0,1-1.3.1,2.2,2.2,0,0,0-1.4.1c-.2-.1-.5-.1-.8-.2a.37.37,0,0,0-.3.1h-.2c-.1,0-.2-.1-.3-.1h-2a2.2,2.2,0,0,0-.8.1c-.1,0-.2,0-.2.1a.31.31,0,0,0-.2.1H9.2c-.2,0-.5.1-.7.1S8.2.5,8,.5H7.3a1.88,1.88,0,0,0-1,.4H6.1C6,.9,6,1,5.9,1h0c-.1,0-.2.1-.3.2s-.3.2-.4.4-.3.4-.4.4-.2.1-.3.2l-.2.2c-.1.1-.1.2-.2.2a.22.22,0,0,0-.2.2c0,.1,0,.1-.1.2s-.1.2-.2.3a2.09,2.09,0,0,0-.4.6v.2l-.1.1a.37.37,0,0,0-.1.3H3c-.1,0-.1.1-.2.2s-.1.2-.1.3v.1l-.1.1a.35.35,0,0,0-.1.2.35.35,0,0,1-.1.2v.1l-.1.1v.1L2.2,6a.35.35,0,0,1-.1.2v.1c-.1.2-.1.4-.2.6l.1.2a.1.1,0,0,0-.1.1.6.6,0,0,0-.1.4v.1c-.1.2-.1.3-.2.5v.3c0,.1-.1.2,0,.3a.37.37,0,0,0-.1.3h0a.35.35,0,0,0-.1.2c0,.1-.1.2-.1.3v.6c0,.2,0,.6-.1.7s-.1.1-.1.2a.1.1,0,0,0,.1.1.76.76,0,0,1-.1.4c0,.2-.1.5-.1.8H1c0,.1,0,.1.1.2v.1c-.1.2,0,.4,0,.5v.6c0,.5-.1,1-.1,1.5a7.57,7.57,0,0,1-.1,1.5l-.1.1a.37.37,0,0,0,.1.3.37.37,0,0,1-.1.3v.1l-.1.1v.8l-.1.1v.3H.5a.6.6,0,0,0-.1.4v.1h0A20.57,20.57,0,0,0,.2,23a.37.37,0,0,0,.1.3c-.2,0-.2.1-.2.2v.3c0,.1,0,.2.1.2h0l-.1.1a.37.37,0,0,0,.1.3v.3a.75.75,0,0,0,.1.5v.2c0,.1-.1.2-.1.3a.37.37,0,0,0,.1.3v.5c-.1,0-.1.1-.1.2h0V27c0,.1.1.1.1.2v1c0,.1,0,.3-.1.3v.2a.1.1,0,0,0,.1.1v.1c0,.1-.1.1,0,.2v4.5c0,1.5,0,3.1-.1,4.5v1l-.1.1v.6a1.27,1.27,0,0,0,.1.6v.1l-.1.1a.37.37,0,0,0,.1.3v.4c0,.1-.1.1-.1.2s0,.2.1.2v1.5c0,1.3,0,2.5-.1,3.6l-.1.1a.37.37,0,0,0,.1.3v.2l-.1.1a.37.37,0,0,0,.1.3h0c0,.1-.1.2,0,.3v1.6a15.48,15.48,0,0,1,.1,2.2v.3c-.2.2-.1.5,0,.9v.1l-.1.1a2.7,2.7,0,0,0,0,.9v.6c.1,2.1.1,4,.3,5.9,0,.1,0,.1.1.2v.4c0,.4.1.8.1,1.2a1.27,1.27,0,0,0,.1.6v.2c0,.1-.1.2,0,.2s0,.1.1.2V64a1.88,1.88,0,0,0,.2.8v.4s0,.2.1.2v.1a.55.55,0,0,0,.2.5c.1.1.2.3.3.4.2.3.3.6.6.7,0,.2.2.3.3.4s0,.1.1.2a.35.35,0,0,0,.2.1h0a1.38,1.38,0,0,0,.4.3.1.1,0,0,0,.1.1c.1,0,.2.1.3.1s.1,0,.2.1a.1.1,0,0,1,.1.1l.2.2a.35.35,0,0,0,.2.1h.1l.2.2c.2.1.4.1.5.2s.2,0,.2.1.1.1.2.2h.3c.1,0,.2.1.3.1a.6.6,0,0,0,.4.1l.1.1c.1.1.3.1.4.2s.3.1.3.2.1.1.4.2H8c.1,0,.1,0,.1.1a.1.1,0,0,0,.1.1h.3l.2.2c.1,0,.2.1.3.1h.1c.1.1.1.1.3.1l.1.1h.3l.1.1c.1,0,.2.1.3.1h.1a.37.37,0,0,0,.3.1h.1l.1.1h.5a.1.1,0,0,1,.1.1c.1,0,.1.1.2.1a1.7,1.7,0,0,0,.7.1.6.6,0,0,1,.4.1.44.44,0,0,0,.3.1c0,.1.2.1.2.1h.2c0,.1.2.1.2.1h.7l.1.1c.3.1.7.1,1.1.2a5.64,5.64,0,0,1,.7.1l.1.1c.1,0,.3.1.4.1h.2a4.1,4.1,0,0,0,1.1.1,4.44,4.44,0,0,1,1.3.2.9.9,0,0,0,.5.1h0a.1.1,0,0,1,.1.1H20a.37.37,0,0,0,.3-.1h.2c.1,0,.2,0,.2.1h1c.1,0,.2.1.3.1a.35.35,0,0,1,.2.1h.2c.2,0,.2,0,.3.1h.1a2.49,2.49,0,0,0,.8.1h.3c.3,0,.7.1,1,.1a1.48,1.48,0,0,1,.7.1.35.35,0,0,0,.2.1,1.48,1.48,0,0,0,.7.1h.3c0,.1.1.1.2.1h.2c0,.1.1.1.2.1.3,0,.4,0,.5-.1h0l.1.1c.5.1,1.2.2,1.8.3a.37.37,0,0,0,.3-.1.35.35,0,0,0,.2.1H31c.2,0,.3-.1.3-.2a3.33,3.33,0,0,1,1,0,4,4,0,0,0,1.1,0c.1,0,.2-.1.3-.1s.1.1.2.1H34c.1,0,.1,0,.2-.1s.5-.1.6-.1h0c.1,0,.2,0,.2-.1h0c.1,0,.1,0,.2-.1s.2-.1.4-.1a1.42,1.42,0,0,1,.4-.2c.2,0,.3-.1.3-.2s.2,0,.2-.1h0c.1,0,.1,0,.2-.1a.35.35,0,0,0,.2-.1H37l.4-.1h.1c.1,0,.2,0,.2-.1h0c.1,0,.1,0,.3-.1l.3-.3h.1c.1,0,.1,0,.2-.1s.2-.1.2-.2h.1a.62.62,0,0,0,.5-.3.1.1,0,0,1,.1-.1.1.1,0,0,0,.1-.1.37.37,0,0,0,.3-.1c.1-.1.1-.2.2-.3h.2c.1,0,.1-.1.2-.2s.1-.2.2-.3.2-.1.3-.2.2-.2.3-.3h0a.1.1,0,0,0,.1-.1.37.37,0,0,0,.1-.3l.1-.1.1-.1a.1.1,0,0,1,.1-.1l.1-.1c.1-.1.4-.2.4-.4v-.1c0-.1.1-.2.1-.3h.1c.1,0,.1-.1.1-.2s.1-.2.1-.4v-.1c.1,0,.1-.1.2-.2a1.45,1.45,0,0,0,.2-.7,2.27,2.27,0,0,1,.1-.4.37.37,0,0,0,.1-.3v-.2l.1-.3.1-.1v-.4l.1-.1c0-.1.1-.2.1-.3a1,1,0,0,1,.1-.3.37.37,0,0,0,.1-.3v-.2a4.33,4.33,0,0,0,.1-.5V63c0-.4.1-.7.1-1.1,0-.1,0-.1-.1-.2v-.4c0-.1.1-.2.1-.3v-.2c0-.2,0-.3.1-.4v-.2c0-.1,0-.1.1-.2v-.1a.76.76,0,0,1,.2-.4c0-.1.1-.2.1-.3v-.5l.1-.1a.37.37,0,0,0,.1-.3h0c.1-.1.1-.1.1-.2v-.2a7.59,7.59,0,0,0,.1-1.6,15.16,15.16,0,0,1,.2-2.3v-.3c0-.1.1-.2.1-.3s.1-.4.1-.6v-.6a.37.37,0,0,0,.1-.3v-.1a.37.37,0,0,0,.1-.3v-.1c0-.1.1-.2.1-.4v-.1c0-.1.1-.2,0-.4v-.8c.1,0,.1-.1.1-.2a7.75,7.75,0,0,0-.1-.9v-.1c0-.1.1-.2.1-.3v-.5c.1,0,.1-.1.1-.2v-.1c0-.1,0-.1-.1-.1v-.7c0-.5.1-.9.1-1.3V44l.1-.1v-.4c0-.4.1-.6.1-.9v-.5c0-.2,0-.2.1-.3a.82.82,0,0,0,0-.7h0a.1.1,0,0,1,.1-.1v-.3a12.12,12.12,0,0,0,.1-2v-.4c0-.1.1-.1.1-.2V36.2c0-.1.1-.1.1-.2V35A3.45,3.45,0,0,0,46.7,33.3Zm-5.8,4.2v.9a1.63,1.63,0,0,0,0,.7.1.1,0,0,0,.1.1,4.48,4.48,0,0,1-.1,1.1c0,.3-.1.6-.1,1v.4c0,.5-.1,1.1-.1,1.5l-.1.6v.5a.37.37,0,0,0-.1.3.35.35,0,0,0-.1.2V45c0,.1,0,.2-.1.2v.4c-.1.1-.1.2-.1.5v.1a1.09,1.09,0,0,1-.1.5V47a.31.31,0,0,0-.1.2v.1a3.54,3.54,0,0,0-.1.6v.2a.37.37,0,0,0,.1.3h0c-.1.1-.1.1-.1.2v1.3a8.6,8.6,0,0,1-.1,1.6v.1a.37.37,0,0,1-.1.3V52a.35.35,0,0,0-.1.2c0,.2-.1.3-.1.5v.2a.31.31,0,0,0-.1.2v.2a.6.6,0,0,1-.1.4,5.9,5.9,0,0,0-.2,1.4V57l-.1.1v.3a1.76,1.76,0,0,1-.1.6c0,.1,0,.2-.1.2a1.25,1.25,0,0,0-.1.9c0,.1,0,.1.1.2h0a.35.35,0,0,0-.1.2c0,.2,0,.3-.1.4a.31.31,0,0,0-.1.2v.1a7.38,7.38,0,0,0-.2,1.2v.2a.19.19,0,0,0,0,.3.37.37,0,0,1-.1.3v.1a.35.35,0,0,0-.1.2v.3h0l-.1.1c0,.2-.1.5-.1.7v.5a.31.31,0,0,0-.1.2c0,.2-.1.4-.1.6s-.1.3-.1.4a.6.6,0,0,1-.1.4v.1a.37.37,0,0,0-.1.3h0c0,.1-.1.2-.1.3v.1a4.33,4.33,0,0,0-.1.5c0,.1-.1.3-.1.4v.2c0,.2-.1.3-.2.5s-.1.1-.1.2-.4.5-.8.7a.37.37,0,0,0-.3.1l-.1.1a.37.37,0,0,1-.3.1c-.1.1-.3.1-.4.2a.1.1,0,0,0-.1.1c-.1,0-.1.1-.2.1s-.2,0-.2.1a.35.35,0,0,0-.2.1.77.77,0,0,0-.3.1c-.3.1-.8.1-1.2.2h-.2a4.33,4.33,0,0,1-.5.1h-.2a.3.3,0,0,0-.4,0H30.3c-.1,0-.3-.1-.4-.1s-.2-.1-.4-.1c-.4-.1-.7-.1-1-.2H28c-.4-.1-1.2-.2-1.8-.3-.3,0-.6-.1-.9-.1-.1,0-.2-.1-.4-.1h-.1a1.27,1.27,0,0,1-.6-.1.44.44,0,0,0-.3-.1c-.1,0-.1,0-.2.1s-.2,0-.2-.1-.3-.1-.4-.1a2.77,2.77,0,0,0-.9-.1,3.59,3.59,0,0,1-1.1-.2H21a.35.35,0,0,1-.2-.1c-.1,0-.2,0-.2.1h-.1a.31.31,0,0,0-.2-.1h0c0-.1-.1-.1-.2-.1a1.09,1.09,0,0,1-.5-.1h-.4c-.4-.1-.7-.1-1.1-.2l-.4-.1c-.1,0-.3-.1-.4-.1s-.3-.1-.4-.1h-.8a.37.37,0,0,0-.3-.1.35.35,0,0,0-.2-.1h-.4a.31.31,0,0,0-.2-.1h-.5a.31.31,0,0,1-.2-.1,1.85,1.85,0,0,0-.7-.2h-.3a.31.31,0,0,0-.2-.1h0l-.1-.1h-.7c-.1,0-.1,0-.2-.1h-.3c-.1,0-.2-.1-.4-.1s-.1,0-.2-.1a.9.9,0,0,0-.5-.1c-.1,0-.1,0-.2-.1s-.1-.1-.2-.1h-.1c-.1,0-.2-.1-.3-.1s-.1-.1-.2-.1a.35.35,0,0,0-.2-.1.35.35,0,0,0-.2-.1c-.1-.1-.3-.1-.4-.2H8.6c0-.1-.1-.1-.1-.2a.37.37,0,0,0-.3-.1h0c-.1-.1-.1-.1-.3-.1H7.8l-.1-.1c-.1,0-.1-.1-.2-.1s-.4-.1-.6-.2l-.1-.1a1.38,1.38,0,0,0-.4-.3,3,3,0,0,0-.4-1l-.1-.3c0-.1,0-.1-.1-.2h0v-.4h0a.37.37,0,0,0-.1-.3v-.5a.37.37,0,0,0-.1-.3v-.7a2.2,2.2,0,0,0-.1-.8.31.31,0,0,0-.1-.2l.1-.1v-.1a.22.22,0,0,0,.2-.2v-.1a.22.22,0,0,0-.2-.2v-.1c0-.1.1-.3-.1-.4v-.3c.1-.2,0-.3,0-.4V58c0-.1,0-.1-.1-.2a.3.3,0,0,0,0-.4h0V55.5a.75.75,0,0,0,.1-.5v-.3c0-.1,0-.1-.1-.2v-.1c0-.1.1-.1.1-.2s0-.1-.1-.2V52l.1-.1a.37.37,0,0,0-.1-.3V47.5a1.27,1.27,0,0,0-.1-.6v-.6c.1-.1.1-.2.1-.4a.66.66,0,0,0-.1-.6h0v-.2s0-.2.1-.2.1-.2.1-.3-.1-.3-.1-.4.1-.2.1-.4a.1.1,0,0,0-.1-.1l.1-.1h0v-.2c0-.1.1-.2,0-.3V41.7a.1.1,0,0,0-.1-.1h0c0-.1.1-.1.1-.2h0c0-.1,0-.1-.1-.1v-.2a.37.37,0,0,1,.1-.3v-.5h0V40a5.65,5.65,0,0,0,0-1.3v-.1a.1.1,0,0,1,.1-.1v-.7a3.35,3.35,0,0,0,0-1c0-.1,0-.1-.1-.2v-.1c0-.1.1-.2.1-.3v-.7a3.08,3.08,0,0,0,.1-1c0-.1,0-.2-.1-.2v-.1c0-.1.1-.1.1-.3v-.8a2.13,2.13,0,0,1,0-.8.35.35,0,0,0,.1-.2c0-.1,0-.1-.1-.2v-.1A3.81,3.81,0,0,0,5.7,30v-.6c0-.1.1-.2.1-.3v-.5a1,1,0,0,0-.1-.3h0a.37.37,0,0,0,.1-.3.76.76,0,0,0-.2-.4c-.1-.1-.1-.3-.2-.4v-.4a.35.35,0,0,0,.2-.1q.15-.15,0-.6v-.3c0-.1.1-.2.1-.3s0-.1-.1-.2h0c.1,0,.1-.1.1-.2v-.2c0-.1-.1-.2-.1-.3a.1.1,0,0,0-.1-.1.35.35,0,0,0,.1-.2c0-.1,0-.2-.1-.2s.1-.1.1-.2a1.09,1.09,0,0,0-.1-.5c0-.1-.1-.2-.1-.3V23c.1-.1.1-.3.2-.5v-.1a10.27,10.27,0,0,1,.1-3v-.3c.1,0,.1-.1.1-.2v-.2a.14.14,0,0,0,0-.2c0-.1,0-.1-.1-.2V18c.1-.1.1-.2.2-.4v-.7c0-.1.1-.1.1-.2a2.81,2.81,0,0,1,.1-.8,4.87,4.87,0,0,0,.1-1.2l.1-.5v-.4a.6.6,0,0,0,.1-.4v-.2a.1.1,0,0,1,.1-.1v-.7a.35.35,0,0,0,.1-.2.37.37,0,0,0-.1-.3v-.1a.37.37,0,0,0,.1-.3h0v-.3a.76.76,0,0,1,.1-.4v-.5a1.27,1.27,0,0,1,.1-.6c0-.1.1-.2.2-.3s.1-.2.2-.3V8.9c.1,0,.1-.1.2-.1s.1-.2.1-.3,0-.1.1-.2.1-.1.2-.3a.31.31,0,0,1,.1-.2c0-.1.1-.1.1-.2s.1-.2.1-.3V7.2c.1,0,.1-.1.1-.2a.37.37,0,0,0,.1-.3.1.1,0,0,0,.1-.1l.1-.1.2-.2a.6.6,0,0,0,.1-.4h0c.1,0,.1-.1.1-.2h0a.32.32,0,0,0,.3-.3V5.3l.1-.1c.1,0,.2,0,.3-.2s.2-.2.2-.2h0l.1-.1h.3a.1.1,0,0,0,.1-.1c.1,0,.1-.1.2-.1a4.1,4.1,0,0,0,1.8-.2h0c.1,0,.2.1.3.1s.2-.1.3-.1l.1-.1h0c.1,0,.1.1.3.1h0c.1,0,.1,0,.2-.1H14a.19.19,0,0,0,.3,0h.5c.2,0,.4-.1.6-.1h.5a1.27,1.27,0,0,1,.6.1h.3a8.12,8.12,0,0,0,1.7.1h.6c.1,0,.1.1.2.1a.35.35,0,0,0,.2-.1h.1c.1,0,.1.1.2.1a.37.37,0,0,0,.3-.1c.1,0,.2.1.3.1a.1.1,0,0,0,.1-.1h1.2a.35.35,0,0,0,.2.1h.2c.1,0,.2-.1.4-.1s.2.1.4,0h.6c.1.1.2.2.3.1a.31.31,0,0,0,.2.1h0l.1.1a.76.76,0,0,1,.4.1h.2c0,.1.1.1.2.1h.4l.1.1c.1.1.2.1.3.2h.5a1.38,1.38,0,0,0,.9,0,.37.37,0,0,0,.3.1h.1a.37.37,0,0,0,.3-.1h.3a3.28,3.28,0,0,0,1,0h.2a.31.31,0,0,0,.2.1h1.1a.6.6,0,0,1,.4.1c.2,0,.4.1.6.1h.7a.35.35,0,0,0,.2.1h1.2c.1.1.1.2.2.2h.6a.31.31,0,0,0,.2.1.6.6,0,0,1,.4.1c0,.1.1.1.2.1h.4c.1,0,.2.1.3.1s.2,0,.2.1.1.1.2.1h.1c0,.1.1.1.2.1a.35.35,0,0,1,.2.1H37l.1.1a.35.35,0,0,0,.2.1.35.35,0,0,1,.2.1.37.37,0,0,0,.1.3c.1.1.1.1.2.1h0a.37.37,0,0,0,.1.3c0,.1.1.1.2.2v.1a.35.35,0,0,0,.1.2.1.1,0,0,0,.1.1c0,.1.1.1.1.3a.35.35,0,0,0,.1.2.37.37,0,0,0,.2.3.37.37,0,0,0,.1.3l.1.1c0,.1,0,.1.1.2s0,.1.1.2h.1v.2a.6.6,0,0,0,.1.4.1.1,0,0,0,.1.1.4.4,0,0,0,.2.4,1.06,1.06,0,0,0,.1.8c0,.1,0,.1.1.2v.1a.37.37,0,0,0,.1.3v.1c0,.1.1.2.1.4s-.1.1-.1.3,0,.1.1.2h0v.1a.76.76,0,0,0,.2.5.1.1,0,0,0,.1.1,2.46,2.46,0,0,0,.1,1.2l.1.2v.4c0,.1-.1.2-.1.4s0,.2.1.2v1.6a12.25,12.25,0,0,0,.2,1.9l.1.5c0,.4.1.7.1,1.1v2h0v.3c0,.1,0,.1.1.2v.5a2.55,2.55,0,0,0,0,.9,4.14,4.14,0,0,0,.1,1v.2h0v.1a.35.35,0,0,0,.1.2l-.1.1a.35.35,0,0,0-.1.2v.8a1.7,1.7,0,0,0,.1.7v.2c0,.3,0,.5.1.6a.56.56,0,0,0-.1.6v.1a4.33,4.33,0,0,0-.1.5h0v.1c0,.1,0,.2.1.2V31c0,.1-.1.2-.1.3s.1.1.1.2v1.1a2.49,2.49,0,0,0,.1.8c0,.3.1.6.1.9v.6a.1.1,0,0,0,.1.1h0c-.1.1,0,.2,0,.4v.1c0,.1-.1.1-.1.2v1.1h0a.22.22,0,0,0-.2.2v.3l.1.1v.2c0,.1,0,.1.1.1v.5C40.8,37.5,40.9,37.5,40.9,37.5Z"/></g></g></svg>