<svg xmlns="http://www.w3.org/2000/svg" viewBox="0 0 90 67.8"><defs><style>.cls-1{fill:#fff;}</style></defs><title>nav_icon</title><g id="Layer_2" data-name="Layer 2"><g id="Layer_1-2" data-name="Layer 1"><path class="cls-1" d="M88.44,53a14.35,14.35,0,0,1,.24,7.62,6.28,6.28,0,0,1-4.47,4.21c-1.42.15-2.84.38-4.27.47-13.34.82-26.67,1.85-40,2.35-9.54.35-19.11,0-28.66-.06a34.9,34.9,0,0,1-5-.44,6.94,6.94,0,0,1-5.09-3.59,3.76,3.76,0,0,1-.69-2c.19-2.36.5-4.71.86-7.06A3.57,3.57,0,0,1,4.42,51.9,26.37,26.37,0,0,1,8,52.06a61.78,61.78,0,0,0,10.71.33c7.4-.3,14.8-.3,22.2-.42.48,0,1,0,1.44,0,6.42-.53,12.86-.28,19.28-.39,6-.11,11.89,0,17.83.11a6.9,6.9,0,0,0,2.13-.22C84.1,50.65,86.24,51.51,88.44,53Zm-51,9.88c2.86-.08,5.72-.06,8.57-.26,6-.42,12-.22,17.85-1.38A30.37,30.37,0,0,1,68.14,61c3.1-.16,6.21-.24,9.3-.53a16.09,16.09,0,0,0,4.1-1.11,1.6,1.6,0,0,0,1-1.71,2.3,2.3,0,0,0-1.74-2c-.72,0-1.43-.09-2.15-.1-3.1,0-6.2-.09-9.31-.09-6.44,0-12.87.54-19.32.17a19.67,19.67,0,0,0-2.14.17c-2.85.19-5.71.49-8.56.52-9.08.11-18.13.77-27.18,1.48a9.77,9.77,0,0,0-2.8.52,4.54,4.54,0,0,0-1.54,1.4c-.31.38.36,1.18,1.16,1.38,1.62.39,3.24.86,4.88,1.1C21.67,63.37,29.56,63.1,37.44,62.87Z"/><path class="cls-1" d="M49.23,0c1.19,0,2.39,0,3.58,0,5.48.14,11,.36,16.46.43,4.06.06,8.11-.07,12.1.92A7.94,7.94,0,0,0,84.2,1.3c1.57-.22,2.74.59,3.88,1.44.35.26.81.87.72,1.15-.7,2.12,0,4.26-.27,6.36a3.35,3.35,0,0,1-1,1.86,8.82,8.82,0,0,1-2.84,2.07,35.5,35.5,0,0,1-8.25,2.21c-5.46.59-11,.84-16.38,1.5a244.66,244.66,0,0,1-27.85,1.38c-6.44,0-12.89-.21-19.33-.33a32.45,32.45,0,0,1-8.41-1.62A5.11,5.11,0,0,1,1,14,14.79,14.79,0,0,1,0,9.1,5.9,5.9,0,0,1,3.75,3.54a29.33,29.33,0,0,1,4.84-1.3C13.06,1.56,17.54.83,22,.48S31.11.17,35.64.11,44.7.1,49.23.1Zm4.22,4.14c-6.49,0-11.28.24-16-.06a109.83,109.83,0,0,0-20,.93A98,98,0,0,0,6.91,7.35,2.11,2.11,0,0,0,5.68,9.69,3.85,3.85,0,0,0,8,13a18.26,18.26,0,0,0,7,1.46c9.56.16,19.12.35,28.68.38,8.39,0,16.66-1.51,25-2.17,2.62-.21,5.22-.58,7.84-.82a10.29,10.29,0,0,0,5.9-2.29,3.07,3.07,0,0,0,.76-1.88,2.31,2.31,0,0,0-1.45-2.24c-1.16-.26-2.32-.5-3.49-.65C69.43,3.72,60.54,5.1,53.45,4.15Z"/><path class="cls-1" d="M86.24,25.32l3.65,3.47c0,1.3.13,2.71.1,4.12A6.18,6.18,0,0,1,84.93,39c-4,.61-8,1.19-12.08,1.48a100.39,100.39,0,0,0-12.1,1.22,56.93,56.93,0,0,1-6.41.55c-3.33.24-6.66.61-10,.66s-6.67-.31-10-.35c-5.47-.08-10.94.61-16.43.24-3.33-.23-6.67-.43-10-.86-3.11-.4-5.13-2.33-6.25-5.24a4.63,4.63,0,0,1,1.89-5.62A24,24,0,0,1,13.75,28c2.62-.19,5.25-.24,7.88-.3a158.66,158.66,0,0,0,17.14-1,109.38,109.38,0,0,1,12.15-.65c6.93-.15,13.85-.11,20.77-.24,2.86,0,5.71-.38,8.57-.5C82.16,25.25,84.06,25.32,86.24,25.32ZM85,29.4c-1.28-.06-2.7-.22-4.11-.18-6.94.19-13.87.44-20.81.65-7.18.21-14.35.37-21.53.64a72.35,72.35,0,0,0-8.57.76,61.68,61.68,0,0,1-8.58.62,63.09,63.09,0,0,0-8.57.71,19,19,0,0,0-4.62,1.76,1.39,1.39,0,0,0,0,1.25,7.72,7.72,0,0,0,5.17,2.16c3.34.2,6.69.36,10,.35,9.81,0,19.62-.19,29.44-.22a58.14,58.14,0,0,0,10.69-1c2.34-.45,4.74-.56,7.12-.81,4-.42,8.08-.81,12.12-1.28a2.46,2.46,0,0,0,2-1.78C85.19,31.91,85.77,30.83,85,29.4Z"/></g></g></svg>