<svg xmlns="http://www.w3.org/2000/svg" viewBox="0 0 60 60"><defs><style>.cls-1{fill:#fff;}</style></defs><title>nav_icon02</title><g id="Layer_2" data-name="Layer 2"><g id="Layer_1-2" data-name="Layer 1"><path class="cls-1" d="M2.73,8.38C21,8.2,39.05,5.8,57.27,5.63c3.64,0,3.64-5.66,0-5.63C39.05.18,21,2.58,2.73,2.75-.91,2.79-.91,8.41,2.73,8.38Z"/><path class="cls-1" d="M57.27,51.62C39.05,51.8,21,54.2,2.73,54.38c-3.64,0-3.64,5.65,0,5.62,18.22-.18,36.32-2.58,54.54-2.75C60.91,57.21,60.91,51.59,57.27,51.62Z"/><path class="cls-1" d="M2.73,27.53c-3.64-.18-3.62,5.45,0,5.63C20.35,34,37.84,27.9,55.39,30.3c3.55.49,5.09-4.93,1.49-5.42C38.75,22.39,20.91,28.44,2.73,27.53Z"/></g></g></svg>