<?xml version="1.0" encoding="utf-8"?>
<!-- Generator: Adobe Illustrator 19.0.0, SVG Export Plug-In . SVG Version: 6.00 Build 0)  -->
<svg version="1.1" xmlns="http://www.w3.org/2000/svg" xmlns:xlink="http://www.w3.org/1999/xlink" x="0px" y="0px"
	 viewBox="0 0 720 720" style="enable-background:new 0 0 720 720;" xml:space="preserve">
<style type="text/css">
	.st0{fill:#C97A67;}
	.st1{fill:#FFFFFF;stroke:#FFFFFF;stroke-width:4;stroke-miterlimit:10;}
	.st2{fill:none;stroke:#FFFFFF;stroke-width:7;stroke-miterlimit:10;}
	.st3{fill:#FFFFFF;}
</style>
<g id="Layer_1">
</g>
<g id="Layer_2">
	<circle id="XMLID_1_" class="st0" cx="367.6" cy="346.3" r="272.8"/>
</g>
<g id="Layer_3">
	<path id="XMLID_3_" class="st1" d="M332.8,214.9l73.5,16.4c18.8,4.2,18.7,31.1-0.2,35.1l-4.6,1c-9.1,1.9-15.2,10.4-14.1,19.6
		l1.3,11.1c2.2,19.1-23,27.8-33.1,11.5l-41.9-67.7C305.3,228.4,317.3,211.5,332.8,214.9z"/>
	<polygon id="XMLID_6_" class="st1" points="269.7,190.6 465.7,234.3 363.9,255.7 376.5,363.2 	"/>
</g>
<g id="Layer_4">
	<path id="XMLID_18_" class="st2" d="M405.1,330.8"/>
	<g id="XMLID_2_">
		<path id="XMLID_15_" class="st3" d="M441.9,287.1c0,0,0.7,0.3,2,0.9c1.3,0.6,3.3,1.5,5.8,2.7c5.1,2.4,12.5,6.1,21.5,11.4
			c4.5,2.7,9.5,5.7,14.8,9.2c5.3,3.5,10.9,7.5,16.8,11.9c5.9,4.5,12,9.4,18.2,14.9c6.2,5.5,12.6,11.6,18.9,18.2
			c3.2,3.3,6.3,6.8,9.5,10.5c3.1,3.7,6.2,7.5,9.2,11.6c6,8.1,11.7,16.9,16.7,26.7c2.5,4.9,4.8,10,6.9,15.4c2.1,5.4,3.9,11,5.3,17
			c1.4,5.9,2.3,12.2,2.6,18.7c0.1,3.2,0,6.5-0.3,9.9c-0.1,1.7-0.3,3.3-0.6,5l0,0.3c-0.1,0.3,0.1-0.2-0.1,0.7l-0.1,0.5l-0.2,1l-0.2,1
			l-0.4,1.5l-0.4,1.5c-0.1,0.5-0.3,1-0.4,1.4l-0.9,2.6c-0.7,1.7-1.3,3.5-2.2,5.2c-1.6,3.4-3.5,6.6-5.6,9.6c-4.3,6-9.5,11.2-15,15.4
			c-11.1,8.5-23.3,13.9-35.4,18c-12.2,4-24.5,6.5-36.8,8.4c-12.3,1.8-24.6,2.8-36.9,3.3c-24.5,0.9-48.8-0.1-72.4-2.3
			c-11.8-1.1-23.5-2.5-35-4.1c-11.5-1.6-22.8-3.5-33.9-5.5c-22.2-4.1-43.4-9-63.3-14.3c-19.9-5.4-38.5-11.2-55.5-17.4
			c-16.9-6.2-32.2-12.6-45.4-19c-13.2-6.4-24.3-12.9-33-19c-8.7-6.1-14.9-11.9-18.6-16.2c-1.9-2.2-3.2-4-4-5.2
			c-0.8-1.3-1.2-1.9-1.2-1.9c-0.4-0.7-0.2-1.6,0.5-2.1c0.6-0.4,1.5-0.3,1.9,0.3l0.1,0.1c0,0,0.5,0.5,1.4,1.6c0.9,1,2.3,2.5,4.4,4.3
			c2,1.8,4.6,3.9,7.9,6.1c3.2,2.2,7.1,4.6,11.6,7c8.9,4.8,20.3,9.9,33.6,14.8c13.4,4.9,28.7,9.8,45.7,14.4
			c17,4.6,35.5,8.9,55.3,12.8c19.8,3.9,40.7,7.3,62.5,10.1c5.4,0.7,10.9,1.4,16.5,2c5.5,0.6,11.1,1.2,16.7,1.7
			c11.2,1,22.6,1.8,34,2.4c11.4,0.6,22.9,0.9,34.5,0.9c11.5,0,23-0.3,34.5-1.1c11.4-0.8,22.7-2,33.7-3.8c11-1.8,21.7-4.3,31.7-7.6
			c5-1.7,9.7-3.6,14.1-5.8c4.4-2.2,8.5-4.6,12-7.4c1.8-1.4,3.4-2.8,4.9-4.3c1.5-1.5,2.8-3,3.9-4.6c1.2-1.6,2.1-3.2,2.9-4.9
			c0.4-0.8,0.8-1.7,1.1-2.5l0.5-1.3c0.1-0.2,0.1-0.4,0.2-0.6l0.2-0.5c0.1-0.2,0.1-0.3,0.2-0.5l0.2-1l0.2-1l0.1-0.5
			c-0.2,0.8,0,0.1,0,0.2l0-0.2c0.2-1.1,0.5-2.1,0.7-3.2c0.4-2.1,0.7-4.3,0.9-6.5c0.4-4.4,0.5-9,0-13.6c-0.4-4.6-1.2-9.2-2.4-13.8
			c-1.2-4.5-2.7-9-4.4-13.4c-3.5-8.7-7.8-17-12.6-24.8c-2.4-3.9-4.9-7.7-7.4-11.3c-2.5-3.7-5.1-7.2-7.7-10.7
			c-5.2-6.8-10.6-13.2-15.9-19.1c-5.3-5.9-10.5-11.3-15.6-16.3c-5.1-4.9-10-9.4-14.7-13.5c-4.7-4.1-9-7.7-13.1-10.8
			c-8.1-6.3-14.7-11-19.3-14.1c-2.3-1.5-4-2.7-5.3-3.5c-1.2-0.8-1.8-1.2-1.8-1.2c-0.7-0.4-0.9-1.4-0.5-2.1
			C440.4,287,441.2,286.8,441.9,287.1z"/>
	</g>
	<g id="XMLID_8_">
		<path id="XMLID_13_" class="st3" d="M425.9,291.9c0,0,0.4,0.3,1.3,1c0.9,0.7,2.1,1.7,3.7,3c3.3,2.7,8,6.7,13.7,12.1
			c11.4,10.8,27,27.2,43,49c8,10.9,16.1,23.2,23.9,36.6c7.8,13.5,15.1,28.3,21.3,44.2c6.1,15.9,11.3,33.1,13.5,51.4
			c0.5,4.6,0.8,9.2,0.8,13.9c0,1.2,0,2.4-0.1,3.5l-0.1,1.8l-0.1,1.8c-0.1,1.1-0.2,2.5-0.4,3.7c-0.2,1.2-0.4,2.4-0.6,3.6
			c-0.9,4.8-2.2,9.5-4,14c-1.8,4.5-3.9,8.9-6.3,13c-4.8,8.3-10.7,15.8-17.2,22.5c-6.5,6.7-13.5,12.8-20.9,18.2
			c-14.7,10.8-30.4,19.3-46,26.3c-15.7,6.9-31.3,12.2-46.4,16.2c-15.1,4-29.6,6.8-43.1,8.5c-13.5,1.7-25.9,2.5-37,2.5
			c-11,0-20.6-0.6-28.5-1.5c-7.9-0.9-14-2-18.1-2.9c-2.1-0.4-3.6-0.8-4.7-1.1c-1.1-0.3-1.6-0.4-1.6-0.4l-0.6-0.2l0.2-1.2l0.6,0.1
			c0,0,2.2,0.3,6.4,0.9c4.1,0.5,10.3,1.1,18,1.4c7.8,0.3,17.2,0.2,28-0.5c10.8-0.8,22.9-2.2,36-4.6c13.1-2.4,27.1-5.7,41.5-10.3
			c14.5-4.5,29.5-10.2,44.3-17.3c14.8-7.1,29.6-15.6,43.1-26c6.7-5.2,13.2-10.8,19-17.1c5.8-6.2,11-12.9,15.1-20.1
			c4.1-7.2,7.2-14.9,8.7-22.8c0.2-1,0.4-2,0.5-3c0.2-1.1,0.2-1.9,0.4-2.9c0.2-2.1,0.3-4.1,0.4-6.2c0.2-4.2,0.1-8.4-0.1-12.6
			c-0.5-8.4-1.7-16.8-3.6-25c-1.8-8.2-4.1-16.2-6.8-24c-5.4-15.6-12-30.2-19-43.7c-7-13.5-14.5-25.9-21.8-37
			c-14.7-22.3-29.2-39.3-39.9-50.6c-5.3-5.7-9.8-9.9-12.8-12.8c-1.5-1.4-2.7-2.5-3.5-3.2c-0.8-0.7-1.2-1.1-1.2-1.1l-0.5-0.4l0.8-1
			L425.9,291.9z"/>
	</g>
</g>
</svg>
